<mxfile host="app.diagrams.net" agent="Mozilla/5.0 (Windows NT 10.0; Win64; x64) AppleWebKit/537.36 (KHTML, like Gecko) Chrome/135.0.0.0 Safari/537.36" version="27.0.1">
  <diagram name="第 1 页" id="9opfUl3JKIg5s-sDdWxu">
    <mxGraphModel dx="1959" dy="914" grid="1" gridSize="10" guides="1" tooltips="1" connect="1" arrows="1" fold="1" page="1" pageScale="1" pageWidth="827" pageHeight="1169" math="0" shadow="0">
      <root>
        <mxCell id="0" />
        <mxCell id="1" parent="0" />
        <mxCell id="dXUoR89ki3mzmKilDUe6-69" style="edgeStyle=orthogonalEdgeStyle;rounded=0;orthogonalLoop=1;jettySize=auto;html=1;entryX=0.5;entryY=0;entryDx=0;entryDy=0;" parent="1" source="dXUoR89ki3mzmKilDUe6-2" target="dXUoR89ki3mzmKilDUe6-4" edge="1">
          <mxGeometry relative="1" as="geometry" />
        </mxCell>
        <mxCell id="dXUoR89ki3mzmKilDUe6-2" value="flo-od&lt;div&gt;模型1&lt;/div&gt;" style="rounded=0;whiteSpace=wrap;html=1;fillColor=#E6D0DE;" parent="1" vertex="1">
          <mxGeometry x="60" y="90" width="90" height="40" as="geometry" />
        </mxCell>
        <mxCell id="dXUoR89ki3mzmKilDUe6-68" style="edgeStyle=orthogonalEdgeStyle;rounded=0;orthogonalLoop=1;jettySize=auto;html=1;" parent="1" source="dXUoR89ki3mzmKilDUe6-3" target="dXUoR89ki3mzmKilDUe6-4" edge="1">
          <mxGeometry relative="1" as="geometry" />
        </mxCell>
        <mxCell id="dXUoR89ki3mzmKilDUe6-3" value="flo-od&lt;div&gt;模型2&lt;/div&gt;" style="rounded=0;whiteSpace=wrap;html=1;fillColor=#E6D0DE;" parent="1" vertex="1">
          <mxGeometry x="200" y="90" width="90" height="40" as="geometry" />
        </mxCell>
        <mxCell id="dXUoR89ki3mzmKilDUe6-9" style="edgeStyle=orthogonalEdgeStyle;rounded=0;orthogonalLoop=1;jettySize=auto;html=1;exitX=0.5;exitY=1;exitDx=0;exitDy=0;entryX=0.5;entryY=0;entryDx=0;entryDy=0;" parent="1" source="dXUoR89ki3mzmKilDUe6-4" target="dXUoR89ki3mzmKilDUe6-7" edge="1">
          <mxGeometry relative="1" as="geometry" />
        </mxCell>
        <mxCell id="dXUoR89ki3mzmKilDUe6-10" value="相等" style="edgeLabel;html=1;align=center;verticalAlign=middle;resizable=0;points=[];" parent="dXUoR89ki3mzmKilDUe6-9" vertex="1" connectable="0">
          <mxGeometry x="-0.3333" y="4" relative="1" as="geometry">
            <mxPoint as="offset" />
          </mxGeometry>
        </mxCell>
        <mxCell id="dXUoR89ki3mzmKilDUe6-35" style="edgeStyle=orthogonalEdgeStyle;rounded=0;orthogonalLoop=1;jettySize=auto;html=1;exitX=1;exitY=0.5;exitDx=0;exitDy=0;" parent="1" source="dXUoR89ki3mzmKilDUe6-4" target="dXUoR89ki3mzmKilDUe6-34" edge="1">
          <mxGeometry relative="1" as="geometry" />
        </mxCell>
        <mxCell id="dXUoR89ki3mzmKilDUe6-36" value="不相等" style="edgeLabel;html=1;align=center;verticalAlign=middle;resizable=0;points=[];" parent="dXUoR89ki3mzmKilDUe6-35" vertex="1" connectable="0">
          <mxGeometry x="-0.0892" y="2" relative="1" as="geometry">
            <mxPoint as="offset" />
          </mxGeometry>
        </mxCell>
        <mxCell id="dXUoR89ki3mzmKilDUe6-4" value="目标数是否相等" style="rhombus;whiteSpace=wrap;html=1;" parent="1" vertex="1">
          <mxGeometry x="140" y="180" width="80" height="80" as="geometry" />
        </mxCell>
        <mxCell id="dXUoR89ki3mzmKilDUe6-16" value="" style="edgeStyle=orthogonalEdgeStyle;rounded=0;orthogonalLoop=1;jettySize=auto;html=1;" parent="1" source="dXUoR89ki3mzmKilDUe6-7" target="dXUoR89ki3mzmKilDUe6-15" edge="1">
          <mxGeometry relative="1" as="geometry" />
        </mxCell>
        <mxCell id="dXUoR89ki3mzmKilDUe6-7" value="计算各个同类目标iou" style="rounded=0;whiteSpace=wrap;html=1;" parent="1" vertex="1">
          <mxGeometry x="135" y="360" width="90" height="40" as="geometry" />
        </mxCell>
        <mxCell id="dXUoR89ki3mzmKilDUe6-21" style="edgeStyle=orthogonalEdgeStyle;rounded=0;orthogonalLoop=1;jettySize=auto;html=1;exitX=0.5;exitY=1;exitDx=0;exitDy=0;entryX=0.5;entryY=0;entryDx=0;entryDy=0;" parent="1" source="dXUoR89ki3mzmKilDUe6-15" target="dXUoR89ki3mzmKilDUe6-18" edge="1">
          <mxGeometry relative="1" as="geometry" />
        </mxCell>
        <mxCell id="dXUoR89ki3mzmKilDUe6-15" value="满足各目标&lt;div&gt;iou阈值&lt;/div&gt;" style="rhombus;whiteSpace=wrap;html=1;" parent="1" vertex="1">
          <mxGeometry x="140" y="430" width="80" height="80" as="geometry" />
        </mxCell>
        <mxCell id="dXUoR89ki3mzmKilDUe6-23" style="edgeStyle=orthogonalEdgeStyle;rounded=0;orthogonalLoop=1;jettySize=auto;html=1;entryX=0;entryY=0.5;entryDx=0;entryDy=0;" parent="1" source="dXUoR89ki3mzmKilDUe6-17" target="dXUoR89ki3mzmKilDUe6-22" edge="1">
          <mxGeometry relative="1" as="geometry" />
        </mxCell>
        <mxCell id="dXUoR89ki3mzmKilDUe6-17" value="flo-vrd模型" style="rounded=0;whiteSpace=wrap;html=1;fillColor=#E6D0DE;" parent="1" vertex="1">
          <mxGeometry x="50" y="565" width="90" height="40" as="geometry" />
        </mxCell>
        <mxCell id="dXUoR89ki3mzmKilDUe6-24" style="edgeStyle=orthogonalEdgeStyle;rounded=0;orthogonalLoop=1;jettySize=auto;html=1;entryX=1;entryY=0.5;entryDx=0;entryDy=0;" parent="1" source="dXUoR89ki3mzmKilDUe6-18" target="dXUoR89ki3mzmKilDUe6-22" edge="1">
          <mxGeometry relative="1" as="geometry" />
        </mxCell>
        <mxCell id="dXUoR89ki3mzmKilDUe6-18" value="yolo-vrd模型" style="rounded=0;whiteSpace=wrap;html=1;fillColor=#E6D0DE;" parent="1" vertex="1">
          <mxGeometry x="220" y="565" width="90" height="40" as="geometry" />
        </mxCell>
        <mxCell id="dXUoR89ki3mzmKilDUe6-19" style="edgeStyle=orthogonalEdgeStyle;rounded=0;orthogonalLoop=1;jettySize=auto;html=1;exitX=0.5;exitY=1;exitDx=0;exitDy=0;entryX=0.4;entryY=0.075;entryDx=0;entryDy=0;entryPerimeter=0;" parent="1" source="dXUoR89ki3mzmKilDUe6-15" target="dXUoR89ki3mzmKilDUe6-17" edge="1">
          <mxGeometry relative="1" as="geometry" />
        </mxCell>
        <mxCell id="dXUoR89ki3mzmKilDUe6-26" style="edgeStyle=orthogonalEdgeStyle;rounded=0;orthogonalLoop=1;jettySize=auto;html=1;exitX=0.5;exitY=1;exitDx=0;exitDy=0;entryX=0.5;entryY=0;entryDx=0;entryDy=0;" parent="1" source="dXUoR89ki3mzmKilDUe6-22" target="dXUoR89ki3mzmKilDUe6-25" edge="1">
          <mxGeometry relative="1" as="geometry" />
        </mxCell>
        <mxCell id="dXUoR89ki3mzmKilDUe6-27" value="相等" style="edgeLabel;html=1;align=center;verticalAlign=middle;resizable=0;points=[];" parent="dXUoR89ki3mzmKilDUe6-26" vertex="1" connectable="0">
          <mxGeometry x="-0.4857" y="9" relative="1" as="geometry">
            <mxPoint as="offset" />
          </mxGeometry>
        </mxCell>
        <mxCell id="dXUoR89ki3mzmKilDUe6-22" value="目标数是否相等" style="rhombus;whiteSpace=wrap;html=1;" parent="1" vertex="1">
          <mxGeometry x="140" y="660" width="80" height="80" as="geometry" />
        </mxCell>
        <mxCell id="dXUoR89ki3mzmKilDUe6-29" value="" style="edgeStyle=orthogonalEdgeStyle;rounded=0;orthogonalLoop=1;jettySize=auto;html=1;" parent="1" source="dXUoR89ki3mzmKilDUe6-25" target="dXUoR89ki3mzmKilDUe6-28" edge="1">
          <mxGeometry relative="1" as="geometry" />
        </mxCell>
        <mxCell id="dXUoR89ki3mzmKilDUe6-25" value="计算vrd各个同类目标iou" style="rounded=0;whiteSpace=wrap;html=1;" parent="1" vertex="1">
          <mxGeometry x="135" y="810" width="90" height="40" as="geometry" />
        </mxCell>
        <mxCell id="dXUoR89ki3mzmKilDUe6-28" value="满足各目标&lt;div&gt;iou阈值&lt;/div&gt;" style="rhombus;whiteSpace=wrap;html=1;" parent="1" vertex="1">
          <mxGeometry x="140" y="890" width="80" height="80" as="geometry" />
        </mxCell>
        <mxCell id="dXUoR89ki3mzmKilDUe6-31" style="edgeStyle=orthogonalEdgeStyle;rounded=0;orthogonalLoop=1;jettySize=auto;html=1;exitX=0.5;exitY=1;exitDx=0;exitDy=0;entryX=0.45;entryY=-0.017;entryDx=0;entryDy=0;entryPerimeter=0;" parent="1" source="dXUoR89ki3mzmKilDUe6-28" edge="1">
          <mxGeometry relative="1" as="geometry">
            <mxPoint x="180.5" y="1028.98" as="targetPoint" />
          </mxGeometry>
        </mxCell>
        <mxCell id="dXUoR89ki3mzmKilDUe6-32" value="入库" style="rounded=0;whiteSpace=wrap;html=1;" parent="1" vertex="1">
          <mxGeometry x="120" y="1030" width="120" height="60" as="geometry" />
        </mxCell>
        <mxCell id="B18N643OG5OTiS8_dy-o-3" style="edgeStyle=orthogonalEdgeStyle;rounded=0;orthogonalLoop=1;jettySize=auto;html=1;entryX=0.5;entryY=0;entryDx=0;entryDy=0;" edge="1" parent="1" source="dXUoR89ki3mzmKilDUe6-34" target="dXUoR89ki3mzmKilDUe6-38">
          <mxGeometry relative="1" as="geometry" />
        </mxCell>
        <mxCell id="dXUoR89ki3mzmKilDUe6-34" value="选取目标多的模型结果" style="rounded=0;whiteSpace=wrap;html=1;" parent="1" vertex="1">
          <mxGeometry x="440" y="200" width="90" height="40" as="geometry" />
        </mxCell>
        <mxCell id="dXUoR89ki3mzmKilDUe6-67" style="edgeStyle=orthogonalEdgeStyle;rounded=0;orthogonalLoop=1;jettySize=auto;html=1;entryX=0.5;entryY=0;entryDx=0;entryDy=0;" parent="1" source="dXUoR89ki3mzmKilDUe6-37" target="dXUoR89ki3mzmKilDUe6-38" edge="1">
          <mxGeometry relative="1" as="geometry" />
        </mxCell>
        <mxCell id="dXUoR89ki3mzmKilDUe6-37" value="yolo-od" style="rounded=0;whiteSpace=wrap;html=1;fillColor=#E6D0DE;" parent="1" vertex="1">
          <mxGeometry x="600" y="200" width="90" height="40" as="geometry" />
        </mxCell>
        <mxCell id="dXUoR89ki3mzmKilDUe6-41" style="edgeStyle=orthogonalEdgeStyle;rounded=0;orthogonalLoop=1;jettySize=auto;html=1;exitX=0.5;exitY=1;exitDx=0;exitDy=0;entryX=0.5;entryY=0;entryDx=0;entryDy=0;" parent="1" source="dXUoR89ki3mzmKilDUe6-38" target="dXUoR89ki3mzmKilDUe6-43" edge="1">
          <mxGeometry relative="1" as="geometry">
            <mxPoint x="560" y="430" as="targetPoint" />
          </mxGeometry>
        </mxCell>
        <mxCell id="dXUoR89ki3mzmKilDUe6-42" value="相等" style="edgeLabel;html=1;align=center;verticalAlign=middle;resizable=0;points=[];" parent="dXUoR89ki3mzmKilDUe6-41" vertex="1" connectable="0">
          <mxGeometry x="0.2046" y="4" relative="1" as="geometry">
            <mxPoint as="offset" />
          </mxGeometry>
        </mxCell>
        <mxCell id="B18N643OG5OTiS8_dy-o-10" style="edgeStyle=orthogonalEdgeStyle;rounded=0;orthogonalLoop=1;jettySize=auto;html=1;entryX=0;entryY=0.75;entryDx=0;entryDy=0;" edge="1" parent="1" source="dXUoR89ki3mzmKilDUe6-38" target="B18N643OG5OTiS8_dy-o-1">
          <mxGeometry relative="1" as="geometry" />
        </mxCell>
        <mxCell id="B18N643OG5OTiS8_dy-o-11" style="edgeStyle=orthogonalEdgeStyle;rounded=0;orthogonalLoop=1;jettySize=auto;html=1;entryX=0;entryY=0.5;entryDx=0;entryDy=0;" edge="1" parent="1" source="dXUoR89ki3mzmKilDUe6-38" target="dXUoR89ki3mzmKilDUe6-46">
          <mxGeometry relative="1" as="geometry" />
        </mxCell>
        <mxCell id="B18N643OG5OTiS8_dy-o-12" value="不相等" style="edgeLabel;html=1;align=center;verticalAlign=middle;resizable=0;points=[];" vertex="1" connectable="0" parent="B18N643OG5OTiS8_dy-o-11">
          <mxGeometry x="-0.7504" y="1" relative="1" as="geometry">
            <mxPoint as="offset" />
          </mxGeometry>
        </mxCell>
        <mxCell id="dXUoR89ki3mzmKilDUe6-38" value="目标数是否相等" style="rhombus;whiteSpace=wrap;html=1;" parent="1" vertex="1">
          <mxGeometry x="520" y="280" width="80" height="80" as="geometry" />
        </mxCell>
        <mxCell id="dXUoR89ki3mzmKilDUe6-44" style="edgeStyle=orthogonalEdgeStyle;rounded=0;orthogonalLoop=1;jettySize=auto;html=1;entryX=1;entryY=0.5;entryDx=0;entryDy=0;" parent="1" source="dXUoR89ki3mzmKilDUe6-43" target="dXUoR89ki3mzmKilDUe6-15" edge="1">
          <mxGeometry relative="1" as="geometry" />
        </mxCell>
        <mxCell id="dXUoR89ki3mzmKilDUe6-43" value="计算各个同类目标iou" style="rounded=0;whiteSpace=wrap;html=1;" parent="1" vertex="1">
          <mxGeometry x="515" y="450" width="90" height="40" as="geometry" />
        </mxCell>
        <mxCell id="B18N643OG5OTiS8_dy-o-14" style="edgeStyle=orthogonalEdgeStyle;rounded=0;orthogonalLoop=1;jettySize=auto;html=1;" edge="1" parent="1" source="dXUoR89ki3mzmKilDUe6-46" target="dXUoR89ki3mzmKilDUe6-54">
          <mxGeometry relative="1" as="geometry" />
        </mxCell>
        <mxCell id="dXUoR89ki3mzmKilDUe6-46" value="flo-od&lt;div&gt;模型3&lt;/div&gt;" style="rounded=0;whiteSpace=wrap;html=1;fillColor=#E6D0DE;" parent="1" vertex="1">
          <mxGeometry x="700" y="340" width="90" height="40" as="geometry" />
        </mxCell>
        <mxCell id="dXUoR89ki3mzmKilDUe6-75" style="edgeStyle=orthogonalEdgeStyle;rounded=0;orthogonalLoop=1;jettySize=auto;html=1;" parent="1" source="dXUoR89ki3mzmKilDUe6-54" edge="1">
          <mxGeometry relative="1" as="geometry">
            <mxPoint x="880" y="470" as="targetPoint" />
          </mxGeometry>
        </mxCell>
        <mxCell id="dXUoR89ki3mzmKilDUe6-76" value="相等" style="edgeLabel;html=1;align=center;verticalAlign=middle;resizable=0;points=[];" parent="dXUoR89ki3mzmKilDUe6-75" vertex="1" connectable="0">
          <mxGeometry x="-0.1855" y="4" relative="1" as="geometry">
            <mxPoint as="offset" />
          </mxGeometry>
        </mxCell>
        <mxCell id="B18N643OG5OTiS8_dy-o-6" style="edgeStyle=orthogonalEdgeStyle;rounded=0;orthogonalLoop=1;jettySize=auto;html=1;exitX=1;exitY=0.5;exitDx=0;exitDy=0;entryX=0;entryY=0.5;entryDx=0;entryDy=0;" edge="1" parent="1" source="dXUoR89ki3mzmKilDUe6-54" target="dXUoR89ki3mzmKilDUe6-61">
          <mxGeometry relative="1" as="geometry" />
        </mxCell>
        <mxCell id="B18N643OG5OTiS8_dy-o-7" value="不相等" style="edgeLabel;html=1;align=center;verticalAlign=middle;resizable=0;points=[];" vertex="1" connectable="0" parent="B18N643OG5OTiS8_dy-o-6">
          <mxGeometry x="-0.4456" relative="1" as="geometry">
            <mxPoint as="offset" />
          </mxGeometry>
        </mxCell>
        <mxCell id="dXUoR89ki3mzmKilDUe6-54" value="目标数是否相等" style="rhombus;whiteSpace=wrap;html=1;" parent="1" vertex="1">
          <mxGeometry x="840" y="280" width="80" height="80" as="geometry" />
        </mxCell>
        <mxCell id="dXUoR89ki3mzmKilDUe6-73" style="edgeStyle=orthogonalEdgeStyle;rounded=0;orthogonalLoop=1;jettySize=auto;html=1;exitX=0.5;exitY=1;exitDx=0;exitDy=0;entryX=1;entryY=0.5;entryDx=0;entryDy=0;" parent="1" source="dXUoR89ki3mzmKilDUe6-61" target="dXUoR89ki3mzmKilDUe6-43" edge="1">
          <mxGeometry relative="1" as="geometry" />
        </mxCell>
        <mxCell id="dXUoR89ki3mzmKilDUe6-61" value="计算四个模型目标数，有两个模型结果目标数相等，且大于最小的模型结果目标" style="rounded=0;whiteSpace=wrap;html=1;" parent="1" vertex="1">
          <mxGeometry x="1000" y="290" width="120" height="60" as="geometry" />
        </mxCell>
        <mxCell id="B18N643OG5OTiS8_dy-o-13" style="edgeStyle=orthogonalEdgeStyle;rounded=0;orthogonalLoop=1;jettySize=auto;html=1;entryX=0;entryY=0.5;entryDx=0;entryDy=0;" edge="1" parent="1" source="B18N643OG5OTiS8_dy-o-1" target="dXUoR89ki3mzmKilDUe6-54">
          <mxGeometry relative="1" as="geometry" />
        </mxCell>
        <mxCell id="B18N643OG5OTiS8_dy-o-1" value="选取目标多的模型结果" style="rounded=0;whiteSpace=wrap;html=1;" vertex="1" parent="1">
          <mxGeometry x="700" y="260" width="90" height="40" as="geometry" />
        </mxCell>
        <mxCell id="B18N643OG5OTiS8_dy-o-23" value="" style="edgeStyle=orthogonalEdgeStyle;rounded=0;orthogonalLoop=1;jettySize=auto;html=1;" edge="1" parent="1" source="B18N643OG5OTiS8_dy-o-19">
          <mxGeometry relative="1" as="geometry">
            <mxPoint x="297" y="1320" as="targetPoint" />
          </mxGeometry>
        </mxCell>
        <mxCell id="B18N643OG5OTiS8_dy-o-19" value="flo-od&lt;div&gt;模型&lt;/div&gt;" style="rounded=0;whiteSpace=wrap;html=1;fillColor=#E6D0DE;" vertex="1" parent="1">
          <mxGeometry x="237" y="1190" width="120" height="60" as="geometry" />
        </mxCell>
        <mxCell id="B18N643OG5OTiS8_dy-o-39" value="" style="edgeStyle=orthogonalEdgeStyle;rounded=0;orthogonalLoop=1;jettySize=auto;html=1;" edge="1" parent="1" source="B18N643OG5OTiS8_dy-o-20" target="B18N643OG5OTiS8_dy-o-38">
          <mxGeometry relative="1" as="geometry" />
        </mxCell>
        <mxCell id="B18N643OG5OTiS8_dy-o-20" value="yolo-od&lt;div&gt;模型1&lt;/div&gt;" style="rounded=0;whiteSpace=wrap;html=1;fillColor=#E6D0DE;" vertex="1" parent="1">
          <mxGeometry x="505" y="1190" width="120" height="60" as="geometry" />
        </mxCell>
        <mxCell id="B18N643OG5OTiS8_dy-o-48" style="edgeStyle=orthogonalEdgeStyle;rounded=0;orthogonalLoop=1;jettySize=auto;html=1;exitX=0.5;exitY=1;exitDx=0;exitDy=0;entryX=0.5;entryY=0;entryDx=0;entryDy=0;" edge="1" parent="1" source="B18N643OG5OTiS8_dy-o-21" target="B18N643OG5OTiS8_dy-o-47">
          <mxGeometry relative="1" as="geometry" />
        </mxCell>
        <mxCell id="B18N643OG5OTiS8_dy-o-21" value="yolox-od&lt;div&gt;模型2&lt;/div&gt;" style="rounded=0;whiteSpace=wrap;html=1;fillColor=#E6D0DE;" vertex="1" parent="1">
          <mxGeometry x="705" y="1190" width="120" height="60" as="geometry" />
        </mxCell>
        <mxCell id="B18N643OG5OTiS8_dy-o-26" value="" style="edgeStyle=orthogonalEdgeStyle;rounded=0;orthogonalLoop=1;jettySize=auto;html=1;" edge="1" parent="1" source="B18N643OG5OTiS8_dy-o-24" target="B18N643OG5OTiS8_dy-o-25">
          <mxGeometry relative="1" as="geometry" />
        </mxCell>
        <mxCell id="B18N643OG5OTiS8_dy-o-27" value="是" style="edgeLabel;html=1;align=center;verticalAlign=middle;resizable=0;points=[];" vertex="1" connectable="0" parent="B18N643OG5OTiS8_dy-o-26">
          <mxGeometry x="-0.101" relative="1" as="geometry">
            <mxPoint as="offset" />
          </mxGeometry>
        </mxCell>
        <mxCell id="B18N643OG5OTiS8_dy-o-28" style="edgeStyle=orthogonalEdgeStyle;rounded=0;orthogonalLoop=1;jettySize=auto;html=1;" edge="1" parent="1" source="B18N643OG5OTiS8_dy-o-24">
          <mxGeometry relative="1" as="geometry">
            <mxPoint x="297" y="1480" as="targetPoint" />
          </mxGeometry>
        </mxCell>
        <mxCell id="B18N643OG5OTiS8_dy-o-29" value="否" style="edgeLabel;html=1;align=center;verticalAlign=middle;resizable=0;points=[];" vertex="1" connectable="0" parent="B18N643OG5OTiS8_dy-o-28">
          <mxGeometry x="-0.2076" y="4" relative="1" as="geometry">
            <mxPoint as="offset" />
          </mxGeometry>
        </mxCell>
        <mxCell id="B18N643OG5OTiS8_dy-o-24" value="是否&lt;div&gt;室内场景&lt;/div&gt;" style="rhombus;whiteSpace=wrap;html=1;" vertex="1" parent="1">
          <mxGeometry x="257" y="1320" width="80" height="80" as="geometry" />
        </mxCell>
        <mxCell id="B18N643OG5OTiS8_dy-o-35" style="edgeStyle=orthogonalEdgeStyle;rounded=0;orthogonalLoop=1;jettySize=auto;html=1;exitX=0.5;exitY=1;exitDx=0;exitDy=0;entryX=0;entryY=0.5;entryDx=0;entryDy=0;" edge="1" parent="1" source="B18N643OG5OTiS8_dy-o-25" target="B18N643OG5OTiS8_dy-o-30">
          <mxGeometry relative="1" as="geometry" />
        </mxCell>
        <mxCell id="B18N643OG5OTiS8_dy-o-36" value="补充人脸和行人" style="edgeLabel;html=1;align=center;verticalAlign=middle;resizable=0;points=[];" vertex="1" connectable="0" parent="B18N643OG5OTiS8_dy-o-35">
          <mxGeometry x="-0.2776" y="2" relative="1" as="geometry">
            <mxPoint as="offset" />
          </mxGeometry>
        </mxCell>
        <mxCell id="B18N643OG5OTiS8_dy-o-25" value="flo-base模型" style="rounded=0;whiteSpace=wrap;html=1;fillColor=#E6D0DE;" vertex="1" parent="1">
          <mxGeometry x="70" y="1330" width="120" height="60" as="geometry" />
        </mxCell>
        <mxCell id="B18N643OG5OTiS8_dy-o-68" style="edgeStyle=orthogonalEdgeStyle;rounded=0;orthogonalLoop=1;jettySize=auto;html=1;exitX=0.5;exitY=1;exitDx=0;exitDy=0;entryX=0.5;entryY=0;entryDx=0;entryDy=0;" edge="1" parent="1" source="B18N643OG5OTiS8_dy-o-30" target="B18N643OG5OTiS8_dy-o-64">
          <mxGeometry relative="1" as="geometry" />
        </mxCell>
        <mxCell id="B18N643OG5OTiS8_dy-o-30" value="检测结果" style="rounded=0;whiteSpace=wrap;html=1;" vertex="1" parent="1">
          <mxGeometry x="240" y="1480" width="120" height="60" as="geometry" />
        </mxCell>
        <mxCell id="B18N643OG5OTiS8_dy-o-67" style="edgeStyle=orthogonalEdgeStyle;rounded=0;orthogonalLoop=1;jettySize=auto;html=1;exitX=0.5;exitY=1;exitDx=0;exitDy=0;entryX=0.5;entryY=0;entryDx=0;entryDy=0;" edge="1" parent="1" source="B18N643OG5OTiS8_dy-o-37" target="B18N643OG5OTiS8_dy-o-65">
          <mxGeometry relative="1" as="geometry" />
        </mxCell>
        <mxCell id="B18N643OG5OTiS8_dy-o-37" value="检测结果" style="rounded=0;whiteSpace=wrap;html=1;" vertex="1" parent="1">
          <mxGeometry x="505" y="1480" width="120" height="60" as="geometry" />
        </mxCell>
        <mxCell id="B18N643OG5OTiS8_dy-o-41" value="" style="edgeStyle=orthogonalEdgeStyle;rounded=0;orthogonalLoop=1;jettySize=auto;html=1;" edge="1" parent="1" source="B18N643OG5OTiS8_dy-o-38" target="B18N643OG5OTiS8_dy-o-40">
          <mxGeometry relative="1" as="geometry" />
        </mxCell>
        <mxCell id="B18N643OG5OTiS8_dy-o-44" value="" style="edgeStyle=orthogonalEdgeStyle;rounded=0;orthogonalLoop=1;jettySize=auto;html=1;" edge="1" parent="1" source="B18N643OG5OTiS8_dy-o-38" target="B18N643OG5OTiS8_dy-o-37">
          <mxGeometry relative="1" as="geometry" />
        </mxCell>
        <mxCell id="B18N643OG5OTiS8_dy-o-45" value="否" style="edgeLabel;html=1;align=center;verticalAlign=middle;resizable=0;points=[];" vertex="1" connectable="0" parent="B18N643OG5OTiS8_dy-o-44">
          <mxGeometry x="-0.0265" y="-2" relative="1" as="geometry">
            <mxPoint as="offset" />
          </mxGeometry>
        </mxCell>
        <mxCell id="B18N643OG5OTiS8_dy-o-38" value="是否&lt;div&gt;室内场景&lt;/div&gt;" style="rhombus;whiteSpace=wrap;html=1;" vertex="1" parent="1">
          <mxGeometry x="525" y="1320" width="80" height="80" as="geometry" />
        </mxCell>
        <mxCell id="B18N643OG5OTiS8_dy-o-43" style="edgeStyle=orthogonalEdgeStyle;rounded=0;orthogonalLoop=1;jettySize=auto;html=1;exitX=0.5;exitY=1;exitDx=0;exitDy=0;entryX=0;entryY=0.5;entryDx=0;entryDy=0;" edge="1" parent="1" source="B18N643OG5OTiS8_dy-o-40" target="B18N643OG5OTiS8_dy-o-37">
          <mxGeometry relative="1" as="geometry" />
        </mxCell>
        <mxCell id="B18N643OG5OTiS8_dy-o-40" value="yolo-face+&lt;div&gt;yolo-person模型&lt;/div&gt;" style="rounded=0;whiteSpace=wrap;html=1;fillColor=#E6D0DE;" vertex="1" parent="1">
          <mxGeometry x="370" y="1330" width="120" height="60" as="geometry" />
        </mxCell>
        <mxCell id="B18N643OG5OTiS8_dy-o-46" value="卡口+室内（不包含复杂室外视频点位）" style="rounded=0;whiteSpace=wrap;html=1;" vertex="1" parent="1">
          <mxGeometry x="65" y="1129" width="760" height="40" as="geometry" />
        </mxCell>
        <mxCell id="B18N643OG5OTiS8_dy-o-50" style="edgeStyle=orthogonalEdgeStyle;rounded=0;orthogonalLoop=1;jettySize=auto;html=1;exitX=0.5;exitY=1;exitDx=0;exitDy=0;" edge="1" parent="1" source="B18N643OG5OTiS8_dy-o-47">
          <mxGeometry relative="1" as="geometry">
            <mxPoint x="770" y="1570" as="targetPoint" />
          </mxGeometry>
        </mxCell>
        <mxCell id="B18N643OG5OTiS8_dy-o-47" value="检测结果" style="rounded=0;whiteSpace=wrap;html=1;" vertex="1" parent="1">
          <mxGeometry x="705" y="1480" width="120" height="60" as="geometry" />
        </mxCell>
        <mxCell id="B18N643OG5OTiS8_dy-o-55" style="edgeStyle=orthogonalEdgeStyle;rounded=0;orthogonalLoop=1;jettySize=auto;html=1;exitX=0.5;exitY=1;exitDx=0;exitDy=0;entryX=0.5;entryY=0;entryDx=0;entryDy=0;" edge="1" parent="1" source="B18N643OG5OTiS8_dy-o-49" target="B18N643OG5OTiS8_dy-o-54">
          <mxGeometry relative="1" as="geometry" />
        </mxCell>
        <mxCell id="B18N643OG5OTiS8_dy-o-49" value="同类别框聚类" style="rounded=0;whiteSpace=wrap;html=1;" vertex="1" parent="1">
          <mxGeometry x="240" y="1665" width="590" height="60" as="geometry" />
        </mxCell>
        <mxCell id="B18N643OG5OTiS8_dy-o-57" style="edgeStyle=orthogonalEdgeStyle;rounded=0;orthogonalLoop=1;jettySize=auto;html=1;" edge="1" parent="1" source="B18N643OG5OTiS8_dy-o-54" target="B18N643OG5OTiS8_dy-o-56">
          <mxGeometry relative="1" as="geometry" />
        </mxCell>
        <mxCell id="B18N643OG5OTiS8_dy-o-54" value="簇内模型计数" style="rounded=0;whiteSpace=wrap;html=1;" vertex="1" parent="1">
          <mxGeometry x="240" y="1755" width="590" height="60" as="geometry" />
        </mxCell>
        <mxCell id="B18N643OG5OTiS8_dy-o-58" style="edgeStyle=orthogonalEdgeStyle;rounded=0;orthogonalLoop=1;jettySize=auto;html=1;" edge="1" parent="1" source="B18N643OG5OTiS8_dy-o-56">
          <mxGeometry relative="1" as="geometry">
            <mxPoint x="535" y="2005" as="targetPoint" />
          </mxGeometry>
        </mxCell>
        <mxCell id="B18N643OG5OTiS8_dy-o-59" value="是" style="edgeLabel;html=1;align=center;verticalAlign=middle;resizable=0;points=[];" vertex="1" connectable="0" parent="B18N643OG5OTiS8_dy-o-58">
          <mxGeometry x="-0.1119" y="8" relative="1" as="geometry">
            <mxPoint as="offset" />
          </mxGeometry>
        </mxCell>
        <mxCell id="B18N643OG5OTiS8_dy-o-56" value="簇内模型计数&amp;gt;=2" style="rhombus;whiteSpace=wrap;html=1;" vertex="1" parent="1">
          <mxGeometry x="470" y="1855" width="130" height="80" as="geometry" />
        </mxCell>
        <mxCell id="B18N643OG5OTiS8_dy-o-60" value="yolo-vrd1&lt;div&gt;模型&lt;/div&gt;" style="rounded=0;whiteSpace=wrap;html=1;fillColor=#E6D0DE;" vertex="1" parent="1">
          <mxGeometry x="250" y="2100" width="120" height="60" as="geometry" />
        </mxCell>
        <mxCell id="B18N643OG5OTiS8_dy-o-61" value="yolo-vrd2&lt;div&gt;模型&lt;/div&gt;" style="rounded=0;whiteSpace=wrap;html=1;fillColor=#E6D0DE;" vertex="1" parent="1">
          <mxGeometry x="640" y="2110" width="120" height="60" as="geometry" />
        </mxCell>
        <mxCell id="B18N643OG5OTiS8_dy-o-69" style="edgeStyle=orthogonalEdgeStyle;rounded=0;orthogonalLoop=1;jettySize=auto;html=1;exitX=0.5;exitY=1;exitDx=0;exitDy=0;" edge="1" parent="1" source="B18N643OG5OTiS8_dy-o-64">
          <mxGeometry relative="1" as="geometry">
            <mxPoint x="297.47058823529414" y="1660" as="targetPoint" />
          </mxGeometry>
        </mxCell>
        <mxCell id="B18N643OG5OTiS8_dy-o-64" value="误检过滤模型" style="rounded=0;whiteSpace=wrap;html=1;fillColor=#E6D0DE;" vertex="1" parent="1">
          <mxGeometry x="237" y="1570" width="120" height="60" as="geometry" />
        </mxCell>
        <mxCell id="B18N643OG5OTiS8_dy-o-70" style="edgeStyle=orthogonalEdgeStyle;rounded=0;orthogonalLoop=1;jettySize=auto;html=1;exitX=0.5;exitY=1;exitDx=0;exitDy=0;" edge="1" parent="1" source="B18N643OG5OTiS8_dy-o-65">
          <mxGeometry relative="1" as="geometry">
            <mxPoint x="564.5294117647059" y="1660" as="targetPoint" />
          </mxGeometry>
        </mxCell>
        <mxCell id="B18N643OG5OTiS8_dy-o-65" value="误检过滤模型" style="rounded=0;whiteSpace=wrap;html=1;fillColor=#E6D0DE;" vertex="1" parent="1">
          <mxGeometry x="505" y="1570" width="120" height="60" as="geometry" />
        </mxCell>
        <mxCell id="B18N643OG5OTiS8_dy-o-66" value="误检过滤模型" style="rounded=0;whiteSpace=wrap;html=1;fillColor=#E6D0DE;" vertex="1" parent="1">
          <mxGeometry x="707" y="1570" width="120" height="60" as="geometry" />
        </mxCell>
        <mxCell id="B18N643OG5OTiS8_dy-o-71" style="edgeStyle=orthogonalEdgeStyle;rounded=0;orthogonalLoop=1;jettySize=auto;html=1;exitX=0.5;exitY=1;exitDx=0;exitDy=0;entryX=0.895;entryY=0.056;entryDx=0;entryDy=0;entryPerimeter=0;" edge="1" parent="1" source="B18N643OG5OTiS8_dy-o-66" target="B18N643OG5OTiS8_dy-o-49">
          <mxGeometry relative="1" as="geometry" />
        </mxCell>
        <mxCell id="B18N643OG5OTiS8_dy-o-72" value="是否卡口" style="rhombus;whiteSpace=wrap;html=1;" vertex="1" parent="1">
          <mxGeometry x="495" y="2000" width="80" height="80" as="geometry" />
        </mxCell>
      </root>
    </mxGraphModel>
  </diagram>
</mxfile>
